<svg xmlns="http://www.w3.org/2000/svg" viewBox="0 0 40.25 40.25">
  <title>atom-vscode-logo</title>
  <g id="Layer_2" data-name="Layer 2">
    <g id="atom-vscode">
      <g id="logo">
        <g id="circles">
          <circle id="outer" cx="20.13" cy="20.13" r="20.13" style="fill: #d4d4d4"/>
          <circle id="inner" cx="20.13" cy="20.13" r="18.41" style="fill: #0076bf"/>
        </g>
        <path id="logo-shadow" d="M15.13,8.7c-1.49.32-2.27,2-2.1,4.59a11.35,11.35,0,0,0,.2,1.61,6.7,6.7,0,0,1,.1.71,5.77,5.77,0,0,1-.57.15,9,9,0,0,0-4.4,2.07,2.47,2.47,0,0,0-.85,1.88A2.64,2.64,0,0,0,7.89,21a6.31,6.31,0,0,0,1.45,1.43c1,.69,1.35.79,1.63.51a.37.37,0,0,0,.14-.32c0-.27-.09-.4-.41-.58-1.41-.78-2.15-1.59-2.15-2.37a1.34,1.34,0,0,1,.33-.85,7.53,7.53,0,0,1,4.11-2c.53-.12.63-.13.63,0s.43,1.48.7,2.23l.27.75-.34.64c-.18.35-.45.89-.59,1.2-2,4.32-2.28,7.74-.87,9.15a2,2,0,0,0,1.05.6c1,.26,2.4-.13,3.93-1.14.53-.35.65-.49.65-.72a.55.55,0,0,0-.58-.51,3.44,3.44,0,0,0-.66.37,7.62,7.62,0,0,1-1.85.93,2.32,2.32,0,0,1-1.42,0c-1-.44-1.22-2.22-.61-4.68a23.11,23.11,0,0,1,1.56-4.13l.24-.48.13.3c.25.57,1.21,2.44,1.59,3.07,2.08,3.53,4.42,6.13,6.5,7.18,1.47.75,2.69.68,3.52-.2a4.37,4.37,0,0,0,1-3,21.19,21.19,0,0,0-2.25-9,9.42,9.42,0,0,0-.45-.9.62.62,0,0,0-.5-.14.58.58,0,0,0-.39.4c0,.16,0,.27.38,1.09a24.77,24.77,0,0,1,2.09,6.74,12.77,12.77,0,0,1,0,2.6,3.63,3.63,0,0,1-.43,1.2,1.21,1.21,0,0,1-1.16.61c-1.61,0-4.15-2.22-6.4-5.57a32.12,32.12,0,0,1-2.73-5l-.27-.61.37-.63c.48-.81,1-1.58,1.55-2.37l.45-.63h.69c4.75,0,9.46,1.08,11.87,2.7a4.11,4.11,0,0,1,1.26,1.29,1.1,1.1,0,0,1,.15.64,1,1,0,0,1-.12.56,4.19,4.19,0,0,1-2.08,1.59c-.49.21-.64.35-.64.6a.49.49,0,0,0,.27.48c.2.09.26.09.58,0a5,5,0,0,0,2.9-2.4c.62-1.66-.68-3.35-3.56-4.6a28.11,28.11,0,0,0-10.07-1.87h-.42l.48-.55a28.53,28.53,0,0,1,2.31-2.31,9.56,9.56,0,0,1,3.32-2,2.29,2.29,0,0,1,1.36,0,1.68,1.68,0,0,1,.85,1.24,7.84,7.84,0,0,1,0,2.15c-.11.63-.1.74.07.91a.39.39,0,0,0,.35.14c.38,0,.48-.14.59-.83a7.81,7.81,0,0,0,.08-1.39,4.41,4.41,0,0,0-.1-1.3,2.55,2.55,0,0,0-1.81-2c-2-.48-5.16,1.49-8.26,5.21-.26.3-.49.6-.53.65s-.11.1-.73.14c-.36,0-1,.08-1.46.13-1.19.14-1.09.15-1.16-.16a10.64,10.64,0,0,1-.24-2.39,4.87,4.87,0,0,1,.21-1.87,1.65,1.65,0,0,1,1-1.13,2.29,2.29,0,0,1,1,0,6,6,0,0,1,1.84,1c.38.29.51.34.71.27a.51.51,0,0,0,.37-.5c0-.18,0-.21-.2-.39a8.19,8.19,0,0,0-1.5-1,3.53,3.53,0,0,0-2.34-.43Zm1.6,7.56s-.28.44-.61.93-.65,1-.72,1.11l-.12.21-.1-.28c-.13-.34-.53-1.64-.53-1.72s.19-.11,1.58-.25c.29,0,.52,0,.5,0ZM20,18.9a1.54,1.54,0,0,0-.77.58,1.47,1.47,0,0,0,.56,2.18,1.1,1.1,0,0,0,.67.14,1.1,1.1,0,0,0,.67-.14,1.49,1.49,0,0,0,0-2.69A1.74,1.74,0,0,0,20,18.9Z" style="fill: gray"/>
        <path id="logo-body" d="M14.93,8.5c-1.49.32-2.27,2-2.1,4.59A11.35,11.35,0,0,0,13,14.7a6.7,6.7,0,0,1,.1.71,5.77,5.77,0,0,1-.57.15,9,9,0,0,0-4.4,2.07,2.47,2.47,0,0,0-.85,1.88,2.64,2.64,0,0,0,.38,1.26,6.31,6.31,0,0,0,1.45,1.43c1,.69,1.35.79,1.63.51a.37.37,0,0,0,.14-.32c0-.27-.09-.4-.41-.58C9.08,21,8.34,20.22,8.34,19.44a1.34,1.34,0,0,1,.33-.85,7.53,7.53,0,0,1,4.11-2c.53-.12.63-.13.63,0s.43,1.48.7,2.23l.27.75-.34.64c-.18.35-.45.89-.59,1.2-2,4.32-2.28,7.74-.87,9.15a2,2,0,0,0,1.05.6c1,.26,2.4-.13,3.93-1.14.53-.35.65-.49.65-.72a.55.55,0,0,0-.58-.51,3.44,3.44,0,0,0-.66.37,7.62,7.62,0,0,1-1.85.93,2.32,2.32,0,0,1-1.42,0c-1-.44-1.22-2.22-.61-4.68a23.11,23.11,0,0,1,1.56-4.13l.24-.48.13.3c.25.57,1.21,2.44,1.59,3.07,2.08,3.53,4.42,6.13,6.5,7.18,1.47.75,2.69.68,3.52-.2a4.37,4.37,0,0,0,1-3,21.19,21.19,0,0,0-2.25-9,9.42,9.42,0,0,0-.45-.9.62.62,0,0,0-.5-.14.58.58,0,0,0-.39.4c0,.16,0,.27.38,1.09a24.77,24.77,0,0,1,2.09,6.74,12.77,12.77,0,0,1,0,2.6,3.63,3.63,0,0,1-.43,1.2,1.21,1.21,0,0,1-1.16.61c-1.61,0-4.15-2.22-6.4-5.57a32.12,32.12,0,0,1-2.73-5l-.27-.61.37-.63c.48-.81,1-1.58,1.55-2.37l.45-.63h.69c4.75,0,9.46,1.08,11.87,2.7a4.11,4.11,0,0,1,1.26,1.29,1.1,1.1,0,0,1,.15.64,1,1,0,0,1-.12.56,4.19,4.19,0,0,1-2.08,1.59c-.49.21-.64.35-.64.6a.49.49,0,0,0,.27.48c.2.09.26.09.58,0a5,5,0,0,0,2.9-2.4c.62-1.66-.68-3.35-3.56-4.6A28.11,28.11,0,0,0,19.16,14.9h-.42l.48-.55A28.53,28.53,0,0,1,21.53,12a9.56,9.56,0,0,1,3.32-2,2.29,2.29,0,0,1,1.36,0,1.68,1.68,0,0,1,.85,1.24,7.84,7.84,0,0,1,0,2.15c-.11.63-.1.74.07.91a.39.39,0,0,0,.35.14c.38,0,.48-.14.59-.83a7.81,7.81,0,0,0,.08-1.39,4.41,4.41,0,0,0-.1-1.3,2.55,2.55,0,0,0-1.81-2c-2-.48-5.16,1.49-8.26,5.21-.26.3-.49.6-.53.65s-.11.1-.73.14c-.36,0-1,.08-1.46.13-1.19.14-1.09.15-1.16-.16a10.64,10.64,0,0,1-.24-2.39,4.87,4.87,0,0,1,.21-1.87,1.65,1.65,0,0,1,1-1.13,2.29,2.29,0,0,1,1,0,6,6,0,0,1,1.84,1c.38.29.51.34.71.27a.51.51,0,0,0,.37-.5c0-.18,0-.21-.2-.39a8.19,8.19,0,0,0-1.5-1,3.53,3.53,0,0,0-2.34-.43Zm1.6,7.56s-.28.44-.61.93-.65,1-.72,1.11l-.12.21L15,18c-.13-.34-.53-1.64-.53-1.72s.19-.11,1.58-.25c.29,0,.52,0,.5,0Zm3.25,2.64a1.54,1.54,0,0,0-.77.58,1.47,1.47,0,0,0,.56,2.18,1.1,1.1,0,0,0,.67.14,1.1,1.1,0,0,0,.67-.14,1.49,1.49,0,0,0,0-2.69,1.74,1.74,0,0,0-1.08-.07Z" style="fill: #d4d4d4"/>
      </g>
    </g>
  </g>
</svg>
